<?xml version="1.0" standalone="no"?>
<!DOCTYPE svg PUBLIC "-//W3C//DTD SVG 20010904//EN"
 "http://www.w3.org/TR/2001/REC-SVG-20010904/DTD/svg10.dtd">
<svg version="1.0" xmlns="http://www.w3.org/2000/svg"
 width="1000.000000pt" height="1000.000000pt" viewBox="0 0 1000.000000 1000.000000"
 preserveAspectRatio="xMidYMid meet">
<metadata>
Created by potrace 1.15, written by Peter Selinger 2001-2017
</metadata>
<g transform="translate(0.000000,1000.000000) scale(0.100000,-0.100000)"
fill="#000000" stroke="none">
<path d="M4760 9004 c-19 -2 -105 -11 -190 -19 -85 -9 -184 -23 -220 -31 -36
-8 -73 -14 -84 -14 -50 0 -369 -84 -521 -137 -38 -14 -85 -28 -104 -33 -18 -5
-38 -13 -44 -19 -6 -6 -17 -11 -25 -11 -7 0 -34 -9 -60 -21 -26 -11 -60 -26
-77 -33 -16 -7 -46 -20 -65 -29 -19 -9 -45 -18 -57 -22 -13 -3 -23 -11 -23
-16 0 -5 -5 -9 -11 -9 -10 0 -97 -40 -129 -60 -8 -5 -73 -43 -145 -85 -71 -42
-157 -96 -190 -120 -33 -24 -64 -44 -68 -44 -4 -1 -13 -5 -20 -11 -7 -5 -66
-51 -132 -101 -66 -51 -124 -98 -128 -105 -4 -8 -12 -14 -17 -14 -6 0 -32 -21
-59 -47 -27 -27 -89 -86 -138 -134 -81 -78 -186 -189 -257 -269 -15 -18 -68
-85 -117 -149 -109 -141 -98 -127 -134 -181 -16 -25 -33 -46 -37 -48 -5 -2 -8
-8 -8 -14 0 -10 -67 -117 -90 -145 -5 -7 -10 -15 -10 -19 0 -3 -22 -44 -49
-90 -27 -46 -53 -93 -57 -106 -3 -12 -13 -28 -20 -36 -8 -7 -14 -22 -14 -31 0
-10 -7 -24 -15 -31 -8 -7 -15 -19 -15 -27 0 -8 -9 -31 -19 -51 -11 -20 -26
-54 -35 -74 -9 -21 -23 -53 -31 -70 -8 -18 -17 -45 -21 -61 -3 -15 -10 -30
-15 -33 -5 -3 -9 -13 -9 -22 -1 -9 -9 -35 -20 -57 -11 -22 -20 -51 -20 -65 0
-14 -7 -34 -15 -44 -8 -11 -15 -31 -15 -44 0 -13 -6 -38 -14 -55 -8 -18 -19
-52 -25 -77 -5 -25 -15 -67 -21 -95 -7 -27 -18 -72 -25 -100 -21 -84 -42 -220
-75 -505 -13 -111 -12 -575 1 -665 5 -38 16 -119 24 -180 24 -181 35 -248 50
-295 7 -25 16 -66 20 -92 3 -26 10 -50 15 -53 4 -3 11 -28 15 -56 4 -28 13
-63 21 -77 8 -15 14 -38 14 -52 0 -14 7 -34 15 -44 8 -11 15 -31 15 -46 0 -14
6 -34 14 -45 7 -11 16 -33 20 -50 6 -29 23 -68 53 -127 7 -14 13 -35 13 -46 0
-11 6 -27 14 -34 7 -8 17 -29 21 -46 3 -18 11 -32 16 -32 5 0 9 -5 9 -11 0 -7
9 -30 19 -53 11 -23 22 -48 26 -56 3 -8 16 -32 28 -52 12 -20 34 -58 49 -85
14 -26 38 -68 52 -93 15 -25 29 -53 32 -62 4 -10 10 -18 14 -18 4 0 13 -13 20
-30 7 -16 15 -30 19 -30 4 0 12 -12 18 -27 16 -38 35 -66 51 -76 6 -4 12 -15
12 -22 0 -8 5 -15 10 -15 6 0 16 -12 23 -27 6 -16 17 -32 24 -36 7 -4 13 -12
13 -17 0 -6 8 -18 18 -28 9 -10 24 -29 32 -42 8 -13 23 -30 33 -39 9 -8 17
-21 17 -28 0 -7 4 -13 8 -13 5 0 23 -19 40 -42 17 -24 58 -72 91 -107 34 -35
61 -68 61 -73 0 -4 7 -8 15 -8 8 0 15 -5 15 -10 0 -13 77 -90 90 -90 5 0 10
-4 10 -9 0 -9 77 -91 85 -91 2 0 28 -23 57 -50 29 -28 61 -53 71 -56 9 -3 17
-12 17 -20 0 -8 7 -14 15 -14 9 0 18 -7 21 -15 4 -8 10 -15 15 -15 5 0 17 -8
27 -18 10 -9 29 -24 42 -32 13 -8 32 -23 42 -33 10 -9 23 -17 28 -17 6 0 13
-7 16 -15 4 -8 12 -15 19 -15 6 0 20 -9 30 -20 10 -11 24 -20 32 -20 7 0 13
-5 13 -10 0 -6 10 -15 23 -20 12 -6 36 -19 52 -30 17 -11 42 -26 58 -32 15 -7
27 -18 27 -25 0 -7 11 -13 25 -13 14 0 28 -7 31 -15 4 -8 12 -15 19 -15 6 0
22 -9 35 -20 13 -11 31 -20 40 -20 10 0 20 -7 24 -15 3 -8 14 -15 25 -15 11 0
26 -7 35 -15 8 -8 21 -15 30 -15 8 0 22 -7 30 -16 9 -9 27 -19 41 -22 14 -4
26 -11 27 -17 6 -22 -42 -14 -93 14 -30 17 -64 35 -76 41 -13 5 -23 14 -23 20
0 5 -10 10 -23 10 -13 0 -28 5 -34 11 -6 6 -35 22 -64 37 -30 15 -54 32 -54
37 0 6 -10 11 -23 13 -13 2 -26 10 -29 18 -3 8 -16 14 -29 14 -13 0 -28 9 -34
20 -6 11 -15 20 -21 20 -6 0 -17 7 -25 15 -9 8 -24 15 -35 15 -10 0 -19 7 -19
15 0 8 -7 15 -15 15 -7 0 -18 8 -23 17 -12 21 -41 26 -62 10 -12 -9 -13 -9 -3
2 15 18 5 41 -18 41 -10 0 -19 7 -19 15 0 8 -6 15 -13 15 -7 0 -20 9 -30 20
-9 11 -23 20 -31 20 -8 0 -16 7 -20 15 -3 8 -13 15 -22 15 -10 0 -14 5 -10 15
3 9 0 15 -10 15 -19 0 -64 40 -64 58 0 6 -7 12 -15 12 -8 0 -15 -7 -15 -15 0
-8 -4 -15 -10 -15 -5 0 -10 -5 -10 -11 0 -6 9 -8 21 -4 19 6 21 4 17 -24 -5
-32 8 -43 18 -16 4 8 9 15 13 15 10 0 36 -63 32 -79 -2 -10 3 -8 16 4 17 18
18 18 28 -9 6 -18 16 -26 30 -25 11 1 26 1 33 0 17 -1 15 -31 -3 -31 -8 0 -15
4 -15 10 0 5 -11 9 -25 8 -14 -1 -25 -6 -25 -10 0 -5 -547 -7 -1215 -6 -1004
3 -1216 1 -1220 -10 -3 -8 -5 -80 -6 -160 0 -92 -4 -139 -9 -127 -8 19 -9 19
-9 -3 -1 -13 -4 -21 -9 -19 -4 3 -7 -12 -7 -33 0 -21 3 -36 7 -33 5 2 8 -7 8
-21 0 -14 -4 -26 -10 -26 -7 0 -10 -248 -10 -725 l0 -725 5000 0 5000 0 0 719
c0 556 -3 721 -13 729 -9 8 -13 80 -15 269 -3 217 -6 260 -19 273 -14 13 -15
13 -10 -7 3 -13 2 -23 -3 -23 -4 0 -4 -18 0 -40 l7 -40 -1053 0 -1054 0 0 60
c0 33 4 60 10 60 6 0 10 26 10 59 0 44 -4 60 -16 65 -31 12 -42 7 -36 -16 4
-16 2 -19 -9 -13 -11 7 -12 6 -2 -6 16 -20 22 -167 7 -177 -6 -4 -15 -15 -20
-24 -11 -21 -6 -311 5 -303 5 3 11 -2 15 -10 3 -8 1 -15 -3 -15 -5 0 -5 -16
-1 -35 10 -45 10 -298 0 -315 -15 -24 -19 7 -21 160 -1 106 -6 158 -14 167 -8
7 -15 64 -19 160 -6 140 -4 181 7 228 8 32 9 32 17 0 l8 -30 1 33 c0 17 5 32
10 32 5 0 11 7 14 14 4 10 1 13 -8 10 -14 -6 -17 30 -18 189 0 30 -4 47 -12
47 -9 0 -13 -24 -14 -83 -2 -104 -11 -197 -21 -197 -8 0 -20 133 -20 221 l0
56 98 101 c107 110 172 181 172 188 0 3 14 18 30 34 17 16 30 34 30 40 0 5 3
10 8 10 10 0 92 106 92 119 0 6 4 11 9 11 5 0 30 32 56 70 26 39 51 70 56 70
5 0 9 7 9 15 0 8 9 24 20 35 11 11 20 27 20 35 0 8 5 15 10 15 6 0 16 12 23
28 6 15 14 29 17 32 17 16 50 71 50 83 0 8 6 20 14 26 8 7 17 23 20 36 4 14
11 25 16 25 6 0 10 6 10 14 0 7 9 25 20 39 11 14 20 32 20 40 0 9 6 22 14 29
7 8 17 29 21 46 3 18 11 32 16 32 5 0 9 6 9 13 0 7 9 29 20 50 11 20 20 43 20
51 0 7 7 19 15 26 8 7 15 21 15 31 0 11 9 36 20 56 11 21 20 43 20 49 0 7 7
25 15 40 8 16 15 36 15 45 0 8 7 24 15 35 8 10 15 30 15 44 0 14 6 37 14 52 8
14 17 45 21 68 4 23 13 54 21 68 8 15 14 40 14 55 0 15 6 40 14 55 7 15 17 56
20 92 4 36 12 70 17 76 4 6 11 44 15 85 3 41 10 88 16 104 6 17 14 89 18 160
5 72 13 168 19 215 14 107 14 298 0 415 -5 50 -14 144 -18 210 -5 66 -14 140
-20 165 -5 25 -15 74 -20 110 -20 132 -64 321 -81 352 -6 10 -10 23 -10 30 0
25 -61 212 -96 295 -8 17 -14 37 -14 45 0 7 -7 22 -15 32 -8 11 -15 30 -15 42
0 13 -6 29 -14 36 -7 8 -17 25 -21 38 -6 23 -35 85 -54 120 -5 8 -28 53 -51
100 -23 47 -46 92 -51 100 -4 8 -31 53 -58 100 -51 90 -98 164 -153 243 -60
87 -137 192 -153 208 -8 9 -15 21 -15 27 0 5 -4 12 -9 14 -5 2 -35 35 -67 73
-166 199 -355 381 -575 557 -185 148 -453 316 -694 436 -89 44 -194 92 -202
92 -5 1 -26 9 -48 20 -22 11 -47 19 -55 20 -9 0 -21 5 -27 11 -6 6 -26 14 -44
19 -19 5 -72 22 -119 38 -238 83 -492 139 -805 178 -121 15 -578 28 -665 18z
m378 -2430 c188 -21 372 -73 500 -141 26 -14 70 -37 97 -51 28 -15 54 -33 58
-39 4 -7 13 -13 18 -13 17 0 129 -89 213 -169 210 -202 346 -444 422 -751 35
-144 35 -497 -1 -640 -25 -102 -57 -200 -66 -206 -5 -3 -9 -13 -9 -22 0 -37
-143 -296 -189 -343 -9 -9 -23 -27 -31 -40 -49 -77 -196 -208 -361 -323 -49
-34 -185 -106 -201 -106 -6 0 -19 -6 -27 -13 -9 -7 -43 -21 -76 -31 -33 -10
-71 -23 -85 -28 -14 -6 -61 -16 -105 -24 -44 -8 -100 -18 -125 -24 -58 -12
-312 -12 -370 0 -25 6 -72 15 -105 20 -216 36 -510 178 -671 324 -27 25 -52
46 -56 46 -3 0 -37 35 -75 79 -101 116 -120 139 -127 153 -3 7 -24 40 -46 73
-87 133 -152 295 -197 490 -26 115 -26 474 0 590 32 140 54 207 97 300 67 144
64 138 118 217 17 26 32 51 32 55 0 13 105 132 178 203 68 65 184 160 212 174
23 11 56 31 71 43 21 16 151 83 161 83 6 0 24 7 41 15 91 42 240 80 387 99
143 18 161 18 318 0z"/>
<path d="M4900 5550 c-14 -4 -43 -13 -65 -18 -103 -28 -235 -152 -278 -260
-39 -98 -39 -273 0 -357 87 -188 234 -285 432 -285 193 0 351 106 431 290 21
48 24 70 24 175 0 116 -1 122 -34 189 -40 83 -134 182 -205 218 -102 51 -232
72 -305 48z"/>
</g>
</svg>
